<svg width="200" height="66" xmlns="http://www.w3.org/2000/svg"><path d="M137.297 1.082l-33.674 33.897 2.777 2.776 30.897-31.087zm-8.012.032L99.6 30.989l2.81 2.776 26.906-27.097zm.064 15.99l-21.736 21.864 2.808 2.777 18.96-19.087zM66.662 21.83c-12.48.032-21.29 9.415-21.257 21.544.032 12.13 8.905 21.45 21.385 21.417 12.48-.032 21.289-9.416 21.257-21.544-.032-12.13-8.905-21.45-21.385-21.417zm-45.068.127C9.114 21.988.304 31.372.336 43.5c.032 12.13 8.905 21.45 21.385 21.418 12.48-.032 21.29-9.416 21.258-21.545-.032-12.129-8.905-21.45-21.385-21.417zm161.09.511l-6.033.032-17.076 40.95 6.224-.032 13.63-33.768h.127l13.852 33.705 6.256-.032zm-50.878.16l.128 40.918 25.886-.096v-5.202l-20.364.064-.096-35.684zm-35.238.119l-5.617.018.13 40.887 5.618-.018zm-29.906 4.253c9.352-.032 15.448 7.31 15.48 16.247.032 8.937-6 16.31-15.384 16.341-9.352.032-15.448-7.309-15.48-16.246 0-8.97 6.032-16.31 15.384-16.342zm-45.068.128c9.352-.032 15.448 7.31 15.48 16.246.032 8.97-6.001 16.31-15.353 16.342-9.352.032-15.448-7.31-15.48-16.246-.032-8.97 6-16.31 15.353-16.342zm76.922 4.947l.032 5.554 26.077 25.917h5.554zm.032 7.916v5.65l18.066 17.937h5.649zm.032 8.075v5.586l10.054 9.958 5.554-.032z" fill="#fff"/></svg>